<svg width="32" height="32" viewBox="0 0 32 32" fill="none" xmlns="http://www.w3.org/2000/svg">
<path d="M4 7.6C4 5.61172 5.61172 4 7.6 4H24.4C26.3883 4 28 5.61172 28 7.6V24.4C28 26.3883 26.3883 28 24.4 28H7.6C5.61172 28 4 26.3883 4 24.4V7.6Z" fill="#00C1D5"/>
<rect x="5" y="5" width="22" height="22" rx="2.7" stroke="#00C1D5" stroke-width="2" stroke-linejoin="round"/>
<path d="M12.1957 15.0262C11.9482 14.7845 11.6208 14.6529 11.2826 14.6591C10.9444 14.6654 10.6216 14.809 10.3824 15.0599C10.1432 15.3106 10.0061 15.649 10.0002 16.0035C9.99418 16.3581 10.1198 16.7014 10.3504 16.9607L13.832 20.6109C14.0803 20.8605 14.4111 21 14.7551 21C15.0993 21 15.4301 20.8605 15.6783 20.6109L22.6416 13.3107C22.8759 13.0519 23.0044 12.7074 22.9999 12.3505C22.9954 11.9937 22.8581 11.6529 22.6173 11.4006C22.3766 11.1484 22.0514 11.0046 21.711 11.0001C21.3706 10.9956 21.0421 11.1305 20.7953 11.3762L14.7547 17.709L12.1957 15.0262Z" fill="white"/>
</svg>
